<mxfile host="app.diagrams.net" agent="Mozilla/5.0 (Macintosh; Intel Mac OS X 10_15_7) AppleWebKit/605.1.15 (KHTML, like Gecko) Version/17.5 Safari/605.1.15" version="24.8.2">
  <diagram name="Page-1" id="oFdLp7AZBdROfWNJAoQg">
    <mxGraphModel dx="838" dy="561" grid="1" gridSize="10" guides="1" tooltips="1" connect="1" arrows="1" fold="1" page="1" pageScale="1" pageWidth="826" pageHeight="1169" math="0" shadow="0">
      <root>
        <mxCell id="0" />
        <mxCell id="1" parent="0" />
        <mxCell id="2" value="Raw Data" style="whiteSpace=wrap;strokeWidth=2;" parent="1" vertex="1">
          <mxGeometry x="140" y="480" width="127" height="49" as="geometry" />
        </mxCell>
        <mxCell id="3" value="Primary data" style="rounded=1;arcSize=40;strokeWidth=2" parent="1" vertex="1">
          <mxGeometry x="390" y="410" width="139" height="49" as="geometry" />
        </mxCell>
        <mxCell id="4" value="Insights" style="rhombus;strokeWidth=2;whiteSpace=wrap;" parent="1" vertex="1">
          <mxGeometry x="640" y="383.5" width="102" height="102" as="geometry" />
        </mxCell>
        <mxCell id="5" value="Report" style="whiteSpace=wrap;strokeWidth=2;" parent="1" vertex="1">
          <mxGeometry x="902" y="410" width="108" height="49" as="geometry" />
        </mxCell>
        <mxCell id="6" value="Decision" style="whiteSpace=wrap;strokeWidth=2;" parent="1" vertex="1">
          <mxGeometry x="930" y="610" width="119" height="49" as="geometry" />
        </mxCell>
        <mxCell id="7" value="Action" style="whiteSpace=wrap;strokeWidth=2;" parent="1" vertex="1">
          <mxGeometry x="480" y="670" width="106" height="49" as="geometry" />
        </mxCell>
        <mxCell id="8" value="Pre-processing" style="curved=1;startArrow=none;endArrow=block;exitX=1;exitY=0.06;entryX=0;entryY=0.49;" parent="1" source="2" target="3" edge="1">
          <mxGeometry x="0.5596" y="-29" relative="1" as="geometry">
            <Array as="points">
              <mxPoint x="310" y="410" />
            </Array>
            <mxPoint y="-1" as="offset" />
          </mxGeometry>
        </mxCell>
        <mxCell id="9" value="Analysis" style="curved=1;startArrow=none;endArrow=block;exitX=1;exitY=0.49;entryX=0;entryY=0.5;" parent="1" source="3" target="4" edge="1">
          <mxGeometry relative="1" as="geometry">
            <Array as="points" />
          </mxGeometry>
        </mxCell>
        <mxCell id="10" value="Visualization" style="curved=1;startArrow=none;endArrow=block;exitX=1;exitY=0.5;entryX=0;entryY=0.49;" parent="1" source="4" target="5" edge="1">
          <mxGeometry relative="1" as="geometry">
            <Array as="points" />
          </mxGeometry>
        </mxCell>
        <mxCell id="11" value="Presentation" style="curved=1;startArrow=none;endArrow=block;exitX=1;exitY=0.49;entryX=1;entryY=0.25;entryDx=0;entryDy=0;" parent="1" source="5" target="6" edge="1">
          <mxGeometry relative="1" as="geometry">
            <Array as="points">
              <mxPoint x="1120" y="550" />
            </Array>
          </mxGeometry>
        </mxCell>
        <mxCell id="12" value="Implementation" style="curved=1;startArrow=none;endArrow=block;exitX=0;exitY=0.5;entryX=1;entryY=0.5;exitDx=0;exitDy=0;entryDx=0;entryDy=0;" parent="1" source="6" target="7" edge="1">
          <mxGeometry relative="1" as="geometry">
            <Array as="points">
              <mxPoint x="810" y="790" />
            </Array>
            <mxPoint x="1110" y="405.01960784313724" as="sourcePoint" />
            <mxPoint x="330" y="558.84" as="targetPoint" />
          </mxGeometry>
        </mxCell>
        <mxCell id="_-thAZgq4axyqZ39Ovcb-12" value="Sampling" style="rounded=1;arcSize=40;strokeWidth=2" vertex="1" parent="1">
          <mxGeometry x="20" y="160" width="139" height="49" as="geometry" />
        </mxCell>
        <mxCell id="_-thAZgq4axyqZ39Ovcb-13" value="PreparationÂ " style="whiteSpace=wrap;strokeWidth=2;" vertex="1" parent="1">
          <mxGeometry x="159" y="290" width="127" height="49" as="geometry" />
        </mxCell>
      </root>
    </mxGraphModel>
  </diagram>
</mxfile>
